<?xml version="1.0" encoding="UTF-8" standalone="no"?><!DOCTYPE svg PUBLIC "-//W3C//DTD SVG 1.1//EN" "http://www.w3.org/Graphics/SVG/1.1/DTD/svg11.dtd"><svg width="100%" height="100%" viewBox="0 0 598 250" version="1.1" xmlns="http://www.w3.org/2000/svg" xmlns:xlink="http://www.w3.org/1999/xlink" xml:space="preserve" xmlns:serif="http://www.serif.com/" style="fill-rule:evenodd;clip-rule:evenodd;stroke-linejoin:round;stroke-miterlimit:1.41421;"><path d="M175.651,163.267c0,-11.117 8.655,-20.128 19.323,-20.128c10.673,0 19.324,9.011 19.324,20.128c0,11.115 -8.651,20.127 -19.324,20.127c-10.668,0 -19.323,-9.012 -19.323,-20.127Z" style="fill:#ba904c;fill-rule:nonzero;"/><path d="M143.753,185.981c6.82,-1.785 14.985,-3.761 21.63,-4.885c14.067,-2.378 20.793,5.288 22.446,13.184l6.233,15.853c0.115,0.258 0.212,0.521 0.295,0.785l7.826,20.68c1.385,3.032 -0.185,6.821 -3.503,8.464c-3.321,1.645 -7.134,0.521 -8.516,-2.513l-6.928,-12.84l-3.251,18.606c-0.408,3.626 -3.697,6.201 -7.35,5.755c-3.648,-0.447 -6.276,-3.749 -5.867,-7.375l1.222,-23.371c-0.012,-0.422 -0.004,-0.847 0.043,-1.277l0.084,-1.281c-5.791,1.12 -12.321,2.229 -17.985,3.145l-6.379,-32.93Z" style="fill:#ba904c;fill-rule:nonzero;"/><path d="M98.643,227.831l20.47,-3.349l-0.51,-9.086l25.852,5.872l-0.734,13.147c0,3.566 -1.44,6.778 -3.736,9.057c-2.051,2.405 -4.985,3.992 -8.313,4.188l-32.041,-1.477c-4.868,0.281 -9.03,-3.598 -9.302,-8.662c-0.274,-5.067 3.45,-9.407 8.314,-9.69Z" style="fill:#ba904c;fill-rule:nonzero;"/><path d="M0.706,191.5c0,7.854 6.315,14.216 14.104,14.216c7.793,0 14.108,-6.362 14.108,-14.216c0,-7.853 -6.315,-14.216 -14.108,-14.216c-7.789,0 -14.104,6.363 -14.104,14.216Z" style="fill:#d1b74b;fill-rule:nonzero;"/><path d="M59.453,213.106c2.075,0.882 3.527,2.951 3.527,5.36c0,2.9 -2.102,5.303 -4.854,5.745c-1.309,0.002 -5.622,0.194 -5.622,0.194l0.119,3.12c-0.472,11.876 -9.57,21.595 -24.757,21.595c-15.189,0 -28.217,-12.837 -27.859,-30.956c0.145,-7.197 8.762,-13.222 16.33,-8.488c3.454,2.159 3.98,5.349 3.98,5.349c0,0 7.667,-6.101 10.166,-7.536c5.085,-2.932 8.819,2.299 5.952,5.997c-2.143,2.759 -9.402,11.517 -9.402,11.517l5.114,1.801l4.763,-10.199c2.024,-5.036 5.006,-6.389 10.358,-5.638c4.285,0.602 12.185,2.139 12.185,2.139Z" style="fill:#d1b74b;fill-rule:nonzero;"/><path d="M531.945,32.776c0,15.361 -12.457,27.817 -27.82,27.817c-15.368,0 -27.824,-12.456 -27.824,-27.817c0,-15.367 12.456,-27.819 27.824,-27.819c15.363,0 27.82,12.452 27.82,27.819Z" style="fill:#c76b63;fill-rule:nonzero;"/><path d="M593.435,1.797c-4.021,-2.996 -9.701,-2.159 -12.701,1.862c0,0 -34.915,39.638 -40.202,45.435c-5.286,5.797 -14.055,16.903 -36.407,16.903c-22.353,0 -31.118,-11.106 -36.412,-16.903c-5.29,-5.797 -40.198,-45.435 -40.198,-45.435c-2.996,-4.021 -8.683,-4.858 -12.7,-1.862c-4.021,2.996 -4.858,8.68 -1.866,12.698c0,0 49.013,76.921 50.612,79.637c2.674,4.546 4.741,9.776 4.879,14.289c0.681,22.626 7.322,128.867 7.322,128.867c0,6.535 5.298,11.832 11.832,11.832c6.535,0 11.836,-5.297 11.836,-11.832l2.681,-34.607l2.014,-45.711l2.014,45.711l2.684,34.607c0,6.535 5.301,11.832 11.835,11.832c6.528,0 11.829,-5.297 11.829,-11.832c0,0 6.645,-106.241 7.326,-128.867c0.134,-4.513 2.205,-9.743 4.878,-14.289c1.596,-2.716 50.605,-79.637 50.605,-79.637c2.996,-4.018 2.163,-9.702 -1.861,-12.698Z" style="fill:#c76b63;fill-rule:nonzero;"/><path d="M347.263,96.1c-3.104,9.777 2.12,20.284 11.655,23.464c9.541,3.178 19.79,-2.169 22.89,-11.95c3.102,-9.777 -2.118,-20.282 -11.657,-23.466c-9.537,-3.178 -19.788,2.175 -22.888,11.952Z" style="fill:#d18359;fill-rule:nonzero;"/><path d="M318.041,142.599l-26.373,64.976l-29.897,-6.666c-4.318,-1.554 -9.051,0.778 -10.571,5.205c-1.516,4.431 0.755,9.283 5.077,10.839l34.511,15.988c0.014,0.008 0.022,0.022 0.037,0.03c6.157,2.308 12.218,2.088 15.672,-3.243l19.11,-24.676l52.094,40.769c3.308,3.96 9.126,4.42 12.99,1.025c3.865,-3.397 4.315,-9.357 1.002,-13.32l-48.967,-53.614l13.768,-23.985l45.742,4.015c3.77,1.044 7.653,-1.239 8.671,-5.1c1.021,-3.863 -1.205,-7.841 -4.976,-8.887l-46.06,-13.855c-12.39,-3.665 -34.185,-7.538 -41.83,10.499Z" style="fill:#d18359;fill-rule:nonzero;"/><path d="M312.915,131.563l-22.882,52.56l-31.815,-14.556l-1.091,2.503l-5.452,-2.495l1.089,-2.507l0.686,-1.571l10.676,-24.518c6.261,-14.384 24.989,-22.469 47.369,-12.906c2.337,0.999 1.42,3.49 1.42,3.49Z" style="fill:#d18359;fill-rule:nonzero;"/></svg>